<svg version="1.1" xmlns="http://www.w3.org/2000/svg" viewBox="-13.720222929931184 -4.073886147941764 29.71559396012195 8.36704537678998" fill="none" stroke="black" stroke-width="0.6%" vector-effect="non-scaling-stroke">
    <path d="M 14.99537 0.94611 L 14.99537 2.9353 L 7.7754 3.29316 A 42 4.36216 180 0 0 -12.72022 1.20216" />
    <path d="M 7.7754 1.30397 L 7.7754 3.29316" />
    <path d="M 14.99537 0.94611 L 7.7754 1.30397 A 42 4.36216 180 0 0 -12.72022 -0.78702 L -11.99131 -0.95324" />
    <path d="M 13.85705 0.71359 A 50 5.19305 360 0 1 14.99537 0.94611" />
    <path d="M -12.72022 -0.78702 L -12.72022 1.20216" />
    <path d="M -9.61282 -0.74521 C -9.6 -0.75 -9.59 -0.75 -9.5739 -0.75298 Q -9.57 -0.75 -9.57319 -0.75313" />
    <path d="M -9.61282 -0.74521 L -12.28895 -0.88371" />
    <path d="M -4.54905 -0.41042 C -4.53 -0.41 -4.51 -0.42 -4.48775 -0.41937 Q -4.49 -0.42 -4.48688 -0.41949" />
    <path d="M -4.54905 -0.41042 L -7.01354 -0.58626" />
    <path d="M -7.02466 -0.587 C -7.01 -0.59 -6.99 -0.59 -6.97493 -0.59544 Q -6.97 -0.6 -6.97413 -0.59558" />
    <path d="M -7.02466 -0.587 L -9.60124 -0.74456" />
    <path d="M 3.99594 0.46109 C 4.03 0.46 4.07 0.45 4.10668 0.4519 L 4.10766 0.45182" />
    <path d="M 3.99594 0.46109 L 2.09359 0.2215" />
    <path d="M 2.08485 0.22048 C 2.12 0.22 2.15 0.21 2.18324 0.21108 L 2.18422 0.21099" />
    <path d="M 2.08485 0.22048 L 0.02622 -0.00474" />
    <path d="M 8.6985 1.25746 C 8.75 1.25 8.79 1.25 8.84302 1.24993 L 8.84386 1.24989" />
    <path d="M 8.6985 1.25746 L 7.31733 0.98204" />
    <path d="M 7.31084 0.98084 C 7.34 0.98 7.37 0.98 7.39227 0.97585" />
    <path d="M 7.31084 0.98084 L 5.74804 0.7161" />
    <path d="M 5.74076 0.71495 C 5.77 0.71 5.8 0.71 5.837 0.70807" />
    <path d="M 5.74076 0.71495 L 4.00396 0.46217" />
    <path d="M 0.01682 -0.0057 C 0.05 -0.01 0.07 -0.01 0.1027 -0.01512 L 0.10366 -0.01523" />
    <path d="M 0.01682 -0.0057 L -2.18805 -0.21545" />
    <path d="M -2.19808 -0.21634 C -2.17 -0.22 -2.15 -0.22 -2.12464 -0.22561 Q -2.12 -0.23 -2.12372 -0.22573" />
    <path d="M -2.19808 -0.21634 L -4.53846 -0.40961" />
    <path d="M -12.28895 -0.88386 L -9.75578 -1.45135" />
    <path d="M -12.28895 -0.88386 L -12.28895 -0.88371" />
    <path d="M -9.61282 -0.74536 L -6.79384 -1.29805 L -6.79384 -1.29805" />
    <path d="M -9.61282 -0.74521 L -9.61282 -0.74536 A 0.75 0.66764 258.22692 0 1 -10.27065 -1.52023 L -10.27963 -1.52069 A 0.75 0.66764 78.22692 0 0 -10.27962 -1.52566 A 0.75 0.66764 78.22692 0 0 -11.14729 -2.28387 A 0.75 0.66764 78.22692 0 0 -11.62216 -1.59515 A 0.75 0.66764 78.22692 0 0 -11.62214 -1.59017 L -11.63112 -1.59064 A 0.75 0.66764 258.22692 0 1 -12.13894 -0.8984 A 0.75 0.66764 258.22692 0 1 -12.28895 -0.88386" />
    <path d="M -7.01354 -0.58641 L -3.74772 -1.11178" />
    <path d="M -7.01354 -0.58641 L -7.01354 -0.58626" />
    <path d="M -4.54905 -0.41057 L -1.02003 -0.91716 L -1.02003 -0.91716" />
    <path d="M -4.54905 -0.41042 L -4.54905 -0.41057 A 0.75 0.61484 261.40282 0 1 -5.15486 -1.19462 L -5.16313 -1.19521 A 0.75 0.61484 81.40282 0 0 -5.16311 -1.20018 A 0.75 0.61484 81.40282 0 0 -5.92333 -1.98041 A 0.75 0.61484 81.40282 0 0 -6.39948 -1.28839 A 0.75 0.61484 81.40282 0 0 -6.39946 -1.28342 L -6.40773 -1.28401 L -3.09685 -1.91323" />
    <path d="M -6.40773 -1.28401 A 0.75 0.61484 261.40282 0 1 -6.90811 -0.59241 A 0.75 0.61484 261.40282 0 1 -7.01354 -0.58641" />
    <path d="M -9.60124 -0.7447 L -6.69466 -1.29246" />
    <path d="M -9.60124 -0.7447 L -9.60124 -0.74456" />
    <path d="M -7.02466 -0.58715 L -3.8429 -1.11807 L -3.8429 -1.11807" />
    <path d="M -7.02466 -0.587 L -7.02466 -0.58715 A 0.75 0.64281 259.99571 0 1 -7.65802 -1.3667 L -4.52338 -2.00757" />
    <path d="M -7.65802 -1.3667 L -7.66666 -1.36723 L -4.52338 -2.01006" />
    <path d="M -7.66666 -1.36723 A 0.75 0.64281 79.99571 0 0 -7.66665 -1.3722 L -4.532 -2.01059" />
    <path d="M -7.66665 -1.3722 A 0.75 0.64281 79.99571 0 0 -8.47926 -2.14271 A 0.75 0.64281 79.99571 0 0 -8.95925 -1.45124 A 0.75 0.64281 79.99571 0 0 -8.95923 -1.44627 L -8.96788 -1.4468 L -6.01418 -2.09874" />
    <path d="M -8.96788 -1.4468 A 0.75 0.64281 259.99571 0 1 -9.47625 -0.75409 A 0.75 0.64281 259.99571 0 1 -9.60124 -0.7447" />
    <path d="M 2.09359 0.22135 L 6.62096 -0.19026" />
    <path d="M 2.09359 0.22135 L 2.09359 0.2215" />
    <path d="M 3.99594 0.46094 L 8.72648 0.07491" />
    <path d="M 3.99594 0.46109 L 3.99594 0.46094 A 0.75 0.4746 265.10443 0 1 3.52831 -0.33878 L 8.22407 -0.83625" />
    <path d="M 3.52831 -0.33878 L 3.52193 -0.33958 L 8.22407 -0.83874" />
    <path d="M 3.52193 -0.33958 A 0.75 0.4746 85.10443 0 0 3.52194 -0.34455 L 8.2177 -0.83954" />
    <path d="M 3.52194 -0.34455 A 0.75 0.4746 85.10443 0 0 2.96735 -1.15046 Q 5.28 -1.45 7.58547 -1.75579" />
    <path d="M 2.96735 -1.15046 A 0.75 0.4746 85.10443 0 0 2.56758 -0.46474 A 0.75 0.4746 85.10443 0 0 2.56759 -0.45977 L 2.56121 -0.46057 L 7.12338 -0.97487" />
    <path d="M 2.56121 -0.46057 A 0.75 0.4746 265.10443 0 1 2.14993 0.22146 A 0.75 0.4746 265.10443 0 1 2.09359 0.22135" />
    <path d="M 0.02622 -0.00489 L 0.02622 -0.00474" />
    <path d="M 2.08485 0.22033 L 6.54618 -0.19903 L 6.54618 -0.19903" />
    <path d="M 2.08485 0.22048 L 2.08485 0.22033 A 0.75 0.51359 264.36878 0 1 1.57881 -0.57585 L 6.00249 -1.1064" />
    <path d="M 1.57881 -0.57585 L 1.5719 -0.57661 L 6.00249 -1.10889" />
    <path d="M 1.5719 -0.57661 A 0.75 0.51359 84.36878 0 0 1.57192 -0.58158 L 5.9956 -1.10964" />
    <path d="M 1.57192 -0.58158 A 0.75 0.51359 84.36878 0 0 0.9653 -1.38241 Q 3.13 -1.7 5.30406 -2.0201" />
    <path d="M 0.9653 -1.38241 A 0.75 0.51359 84.36878 0 0 0.53916 -0.69457 A 0.75 0.51359 84.36878 0 0 0.53917 -0.68959 L 0.53226 -0.69035 L 4.81138 -1.23671" />
    <path d="M 0.53226 -0.69035 A 0.75 0.51359 264.36878 0 1 0.09197 -0.00568 A 0.75 0.51359 264.36878 0 1 0.02622 -0.00489" />
    <path d="M 7.31733 0.98189 L 7.31733 0.98204" />
    <path d="M 8.6985 1.25731 L 14.09375 0.98182 L 14.09375 0.98182 A 0.855 0.39282 266.90367 0 1 13.72898 0.06119 A 0.855 0.39282 266.90367 0 1 13.72898 0.05871 L 13.72436 0.05779 A 0.855 0.39282 86.90367 0 0 13.27617 -0.87172" />
    <path d="M 8.6985 1.25746 L 8.6985 1.25731 A 0.75 0.34458 266.90367 0 1 8.35899 0.44879 L 13.72898 0.06119" />
    <path d="M 8.35899 0.44879 L 8.35436 0.44786 L 13.72898 0.05871" />
    <path d="M 8.35436 0.44786 A 0.75 0.34458 86.90367 0 0 8.35437 0.44289 L 13.72436 0.05779" />
    <path d="M 8.35437 0.44289 A 0.75 0.34458 86.90367 0 0 7.96121 -0.37464 Q 10.62 -0.62 13.27617 -0.87172" />
    <path d="M 7.96121 -0.37464 A 0.75 0.34458 86.90367 0 0 7.66147 0.30472 A 0.75 0.34458 86.90367 0 0 7.66148 0.30969 L 7.65684 0.30877 L 12.92984 -0.09817" />
    <path d="M 7.65684 0.30877 A 0.75 0.34458 266.90367 0 1 7.35167 0.98357 A 0.75 0.34458 266.90367 0 1 7.31733 0.98189" />
    <path d="M 5.74804 0.71595 L 10.77978 0.37376" />
    <path d="M 5.74804 0.71595 L 5.74804 0.7161" />
    <path d="M 7.31084 0.9807 L 12.50948 0.66678" />
    <path d="M 7.31084 0.98084 L 7.31084 0.9807 A 0.75 0.38989 266.35658 0 1 6.92668 0.17479 L 12.09675 -0.25103" />
    <path d="M 6.92668 0.17479 L 6.92144 0.17391 L 12.09675 -0.25351" />
    <path d="M 6.92144 0.17391 A 0.75 0.38989 86.35658 0 0 6.92144 0.16893 L 12.09152 -0.2544" />
    <path d="M 6.92144 0.16893 A 0.75 0.38989 86.35658 0 0 6.47354 -0.64526 Q 9.03 -0.91 11.58091 -1.1801" />
    <path d="M 6.47354 -0.64526 A 0.75 0.38989 86.35658 0 0 6.13743 0.03612 A 0.75 0.38989 86.35658 0 0 6.13744 0.04109 L 6.1322 0.0402 L 11.19252 -0.40421" />
    <path d="M 6.1322 0.0402 A 0.75 0.38989 266.35658 0 1 5.78891 0.71724 A 0.75 0.38989 266.35658 0 1 5.74804 0.71595" />
    <path d="M 4.00396 0.46202 L 4.00396 0.46217" />
    <path d="M 5.74076 0.71481 L 10.71748 0.36399" />
    <path d="M 5.74076 0.71495 L 5.74076 0.71481 A 0.75 0.4333 265.76124 0 1 5.31383 -0.08815 L 10.25879 -0.55066" />
    <path d="M 5.31383 -0.08815 L 5.30801 -0.089 L 10.25879 -0.55315" />
    <path d="M 5.30801 -0.089 A 0.75 0.4333 85.76124 0 0 5.30802 -0.09397 L 10.25298 -0.55399" />
    <path d="M 5.30802 -0.09397 A 0.75 0.4333 85.76124 0 0 4.8063 -0.90431 Q 7.24 -1.19 9.68103 -1.47529" />
    <path d="M 4.8063 -0.90431 A 0.75 0.4333 85.76124 0 0 4.43671 -0.22079 A 0.75 0.4333 85.76124 0 0 4.43672 -0.21581 L 4.43089 -0.21666 L 9.25388 -0.69692" />
    <path d="M 4.43089 -0.21666 A 0.75 0.4333 265.76124 0 1 4.05209 0.4628 A 0.75 0.4333 265.76124 0 1 4.00396 0.46202" />
    <path d="M -2.18805 -0.2156 L 1.74684 -0.68867" />
    <path d="M -2.18805 -0.2156 L -2.18805 -0.21545" />
    <path d="M 0.01682 -0.00585 L 4.18719 -0.45652 L 4.18719 -0.45652" />
    <path d="M 0.01682 -0.0057 L 0.01682 -0.00585 A 0.75 0.55007 263.53079 0 1 -0.52517 -0.79823 L 3.60488 -1.3598" />
    <path d="M -0.52517 -0.79823 L -0.53256 -0.79893 L 3.60488 -1.36229" />
    <path d="M -0.53256 -0.79893 A 0.75 0.55007 83.53079 0 0 -0.53255 -0.8039 L 3.5975 -1.36299" />
    <path d="M -0.53255 -0.8039 A 0.75 0.55007 83.53079 0 0 -1.19051 -1.5989 Q 0.83 -1.93 2.84743 -2.2668" />
    <path d="M -1.19051 -1.5989 A 0.75 0.55007 83.53079 0 0 -1.63868 -0.90913 A 0.75 0.55007 83.53079 0 0 -1.63867 -0.90416 L -1.64606 -0.90486 L 2.32915 -1.48116" />
    <path d="M -1.64606 -0.90486 A 0.75 0.55007 263.53079 0 1 -2.11136 -0.2176 A 0.75 0.55007 263.53079 0 1 -2.18805 -0.2156" />
    <path d="M -4.53846 -0.40976 L -4.53846 -0.40961" />
    <path d="M -2.19808 -0.21649 L 1.66102 -0.69628 L 1.66102 -0.69628" />
    <path d="M -2.19808 -0.21634 L -2.19808 -0.21649 A 0.75 0.58388 262.5578 0 1 -2.77337 -1.00482 L 1.04292 -1.59521" />
    <path d="M -2.77337 -1.00482 L -2.78123 -1.00547 L 1.04292 -1.5977" />
    <path d="M -2.78123 -1.00547 A 0.75 0.58388 82.5578 0 0 -2.78121 -1.01044 L 1.03509 -1.59834" />
    <path d="M -2.78121 -1.01044 A 0.75 0.58388 82.5578 0 0 -3.49018 -1.79867 Q -1.63 -2.15 0.22687 -2.49444" />
    <path d="M -3.49018 -1.79867 A 0.75 0.58388 82.5578 0 0 -3.95532 -1.1074 A 0.75 0.58388 82.5578 0 0 -3.95531 -1.10242 L -3.96316 -1.10307 L -0.31122 -1.70704" />
    <path d="M -3.96316 -1.10307 A 0.75 0.58388 262.5578 0 1 -4.44877 -0.41342 A 0.75 0.58388 262.5578 0 1 -4.53846 -0.40976" />
    <path d="M -11.63112 -1.59064 L -9.04901 -2.26266" />
    <path d="M -7.52944 -2.37657 A 0.855 0.76111 78.22692 0 0 -8.49871 -3.04734" />
    <path d="M -10.27065 -1.52023 L -7.50061 -2.18252" />
    <path d="M -10.27963 -1.52069 L -7.50061 -2.185" />
    <path d="M -10.27962 -1.52566 L -7.50956 -2.18547" />
    <path d="M -1.72856 -2.12841 A 0.855 0.70092 81.40282 0 0 -2.54579 -2.70154" />
    <path d="M -5.15486 -1.19462 L -1.67091 -1.81149" />
    <path d="M -5.16313 -1.19521 L -1.67091 -1.81397" />
    <path d="M -5.16311 -1.20018 L -1.67915 -1.81456" />
    <path d="M -4.5672 -2.26995 A 0.855 0.7328 79.99571 0 0 -5.45838 -2.88649" />
    <path d="M 8.13645 -1.29438 A 0.855 0.54104 85.10443 0 0 7.58547 -1.75579" />
    <path d="M 5.91816 -1.53724 A 0.855 0.58549 84.36878 0 0 5.30406 -2.0201" />
    <path d="M 12.0107 -0.75337 A 0.855 0.44447 86.35658 0 0 11.58091 -1.1801" />
    <path d="M 10.17065 -1.03242 A 0.855 0.49396 85.76124 0 0 9.68103 -1.47529" />
    <path d="M 3.52666 -1.75887 A 0.855 0.62708 83.53079 0 0 2.84743 -2.2668" />
    <path d="M 0.97365 -1.95686 A 0.855 0.66562 82.5578 0 0 0.22687 -2.49444" />
    <path d="M -9.5739 -0.75298 Q -9.57 -0.75 -9.57245 -0.75327" />
    <path d="M -4.48775 -0.41937 Q -4.49 -0.42 -4.48599 -0.41962" />
    <path d="M -6.97493 -0.59544 Q -6.97 -0.6 -6.97331 -0.59571" />
    <path d="M 4.10668 0.4519 Q 4.11 0.45 4.10845 0.45176" />
    <path d="M 2.18324 0.21108 Q 2.18 0.21 2.18521 0.2109" />
    <path d="M 8.84302 1.24993 Q 8.84 1.25 8.84471 1.24985" />
    <path d="M 0.1027 -0.01512 Q 0.1 -0.02 0.10463 -0.01533" />
    <path d="M -2.12464 -0.22561 Q -2.12 -0.23 -2.12278 -0.22585" />
    <path d="M -11.14729 -2.28387 Q -9.82 -2.67 -8.49871 -3.04734" />
    <path d="M -5.92333 -1.98041 Q -4.23 -2.34 -2.54579 -2.70154" />
    <path d="M -8.47926 -2.14271 Q -6.97 -2.51 -5.45838 -2.88649" />
</svg>