<svg version="1.1" xmlns="http://www.w3.org/2000/svg" viewBox="-9.09745815931932 -11.214032587500933 18.495996808006154 22.391975799562907" fill="none" stroke="black" stroke-width="0.6%" vector-effect="non-scaling-stroke">
    <path d="M -7.47413 0.54457 L -7.47413 -9.25596 L -8.09746 -9.93765 L -0.44447 -10.21403 L -0.13717 -9.87796 L -6.29607 -9.65554 L -5.98004 -9.30992 L -7.47413 -9.25596" />
    <path d="M -8.09746 -0.13712 L -8.09746 -9.93765" />
    <path d="M -7.47413 0.54457 L -8.09746 -0.13712" />
    <path d="M -0.13717 -9.22562 L -0.13717 -9.87796" />
    <path d="M -5.98004 -9.22751 L -5.98004 -9.30992" />
    <path d="M -7.16732 0.53349 L -7.47413 0.54457" />
    <path d="M -7.10926 1.0413 Q -7.5 0.61 -7.16732 0.92195 L -7.16732 -8.87859 Q -7.5 -9.19 -5.25683 -9.26799 L -2.36474 -9.37243 Q -1.33 -9.41 -0.62177 -9.31702 Q 0.09 -9.22 0.2699 -9.02573 Q 0.45 -8.83 0.31864 -8.92362 Q 0.45 -8.83 -0.04821 -8.68976 Q -0.55 -8.55 -1.58165 -8.51603 L -4.47374 -8.41158 Q -5.6 -8.37 -6.25995 -8.46 Q -6.92 -8.55 -7.10926 -8.75924 Q -7.5 -9.19 -7.16732 -8.87859" />
    <path d="M -6.50509 1.29985 Q -6.92 1.25 -7.10926 1.0413 L -7.10926 -8.75924" />
    <path d="M -1.77313 -9.03479 L -5.29456 -8.90762 Q -5.58 -8.9 -5.69441 -8.87 Q -5.81 -8.84 -5.78096 -8.82292 Q -5.81 -8.84 -5.77371 -8.80747 Q -5.74 -8.77 -5.58878 -8.75448 Q -5.44 -8.74 -5.1479 -8.74722 L -1.62647 -8.8744 Q -1 -8.9 -1.06281 -8.96121 Q -1 -8.9 -1.07046 -8.97732 Q -1.14 -9.06 -1.77313 -9.03479 Z" />
    <path d="M -6.19255 1.94614 L -6.19255 -7.8544 L -6.50509 -8.1962 L 0.70112 -8.45644 L 1.01365 -8.11464 L 0.21136 -8.08567 Q 0.73 -8.07 0.97649 -8.03046 Q 1.22 -7.99 1.29306 -7.90677 Q 1.38 -7.81 1.31715 -7.85502 Q 1.38 -7.81 1.15126 -7.72806 Q 0.92 -7.64 0.36007 -7.62453 L -2.05161 -7.53744 L -2.35716 -7.8716 L -0.63248 -7.93388 Q -0.5 -7.94 -0.41607 -7.94417 Q -0.33 -7.95 -0.25949 -7.9656 Q -0.19 -7.98 -0.20624 -7.9944 Q -0.19 -7.98 -0.21143 -8.00531 Q -0.23 -8.03 -0.36209 -8.04524 Q -0.49 -8.06 -0.68221 -8.0534 L -6.19255 -7.8544" />
    <path d="M -6.50509 1.60434 L -6.50509 -8.1962" />
    <path d="M -6.19255 1.94614 L -6.50509 1.60434" />
    <path d="M 1.01365 -8.02328 L 1.01365 -8.11464" />
    <path d="M -2.05161 -7.4467 L -2.05161 -7.53744" />
    <path d="M -2.35716 -7.43567 L -2.35716 -7.8716" />
    <path d="M -5.46144 1.91973 L -6.19255 1.94614" />
    <path d="M -5.40863 2.90114 Q -5.48 2.82 -5.46144 2.79218 L -5.46144 -7.00835 Q -5.48 -6.98 -5.45595 -7.0407 Q -5.43 -7.11 -5.34497 -7.1527 Q -5.26 -7.2 -5.09031 -7.23784 Q -4.92 -7.28 -4.73893 -7.30132 Q -4.55 -7.33 -4.30436 -7.3471 Q -4.05 -7.37 -3.83704 -7.37877 Q -3.62 -7.39 -3.35008 -7.39981 L -0.45318 -7.50443 Q 0.54 -7.54 1.17078 -7.4462 Q 1.8 -7.35 1.98623 -7.1487 Q 2.36 -6.74 2.04492 -7.02854 Q 2.36 -6.74 0.31681 -6.66234 L -0.20684 -6.64343 Q -1.18 -6.61 -1.55068 -6.59884 L -2.00465 -7.09531 L -3.01352 -7.05888 Q -3.06 -7.06 -3.17009 -7.05372 Q -3.28 -7.05 -3.33627 -7.04821 Q -3.51 -7.04 -3.6291 -7.03467 Q -3.75 -7.03 -3.86931 -7.01515 Q -3.99 -7 -4.03835 -6.98291 Q -4.09 -6.96 -4.07077 -6.95329 Q -4.09 -6.96 -4.06261 -6.93617 Q -4.04 -6.91 -3.92309 -6.89485 Q -3.81 -6.88 -3.61738 -6.88075 Q -3.43 -6.88 -3.28001 -6.88356 Q -3.13 -6.89 -2.91795 -6.89466 Q -2.5 -6.91 -2.4585 -6.91323 L -2.14771 -6.57334 L -2.55606 -6.55859 Q -3.16 -6.54 -3.59593 -6.53978 Q -4.04 -6.54 -4.41631 -6.57672 Q -4.8 -6.61 -5.04406 -6.69065 Q -5.29 -6.77 -5.40863 -6.8994 Q -5.48 -6.98 -5.46144 -7.00835" />
    <path d="M -1.55068 -6.45682 L -1.55068 -6.59884" />
    <path d="M -2.00465 -6.44043 L -2.00465 -7.09531" />
    <path d="M -2.14771 -6.43526 L -2.14771 -6.57334" />
    <path d="M -4.80708 3.17009 Q -4.8 3.19 -5.04406 3.10988 Q -5.29 3.03 -5.40863 2.90114 L -5.40863 -6.8994" />
    <path d="M 0.69043 -7.10585 Q 0.67 -7.13 0.57974 -7.14821 Q 0.49 -7.16 0.34631 -7.16739 Q 0.2 -7.17 0.04999 -7.16853 Q -0.1 -7.17 -0.31054 -7.15847 Q -0.41 -7.15 -0.61232 -7.14658 Q -0.81 -7.14 -0.91411 -7.1347 L -0.76744 -6.9743 L -0.018 -7.00136 Q 0.76 -7.03 0.69618 -7.0936 Q 0.76 -7.03 0.69043 -7.10585 Z" />
    <path d="M -4.80708 3.46132 L -4.80708 -6.33922 L 2.40393 -6.59964 L 2.70948 -6.26548 L 1.86876 -6.23512 Q 2.12 -6.23 2.31487 -6.21671 Q 2.51 -6.2 2.6269 -6.18211 Q 2.74 -6.16 2.82952 -6.1342 Q 2.91 -6.11 2.95178 -6.0819 Q 2.99 -6.06 3.01595 -6.02801 Q 3.06 -5.98 3.04107 -5.97293 Q 3.06 -5.98 3.03207 -5.93982 Q 3.01 -5.9 2.87109 -5.84722 Q 2.73 -5.8 2.48826 -5.76928 Q 2.94 -5.74 3.15533 -5.68834 Q 3.37 -5.64 3.45071 -5.55254 Q 3.51 -5.49 3.48698 -5.4774 Q 3.51 -5.49 3.47337 -5.4355 Q 3.44 -5.38 3.31064 -5.3448 Q 3.18 -5.31 3.01844 -5.27902 Q 2.85 -5.25 2.61727 -5.23199 Q 2.38 -5.21 2.16874 -5.20149 Q 1.96 -5.19 1.69181 -5.18032 L -3.57701 -4.99398 L -3.89217 -5.33865 L 1.40199 -5.52984 Q 2.1 -5.55 2.0402 -5.61332 Q 2.1 -5.55 2.03486 -5.62469 Q 2.01 -5.65 1.90845 -5.66796 Q 1.81 -5.68 1.66323 -5.68919 Q 1.52 -5.69 1.38918 -5.6931 Q 1.26 -5.69 1.13348 -5.68781 L -4.04058 -5.50095 L -4.35312 -5.84275 L 0.73446 -6.02649 Q 0.75 -6.03 0.82334 -6.0297 Q 0.9 -6.03 0.93864 -6.03386 Q 0.98 -6.04 1.06311 -6.03885 Q 1.15 -6.04 1.19544 -6.04609 Q 1.24 -6.05 1.31599 -6.05538 Q 1.39 -6.06 1.42867 -6.06783 Q 1.47 -6.07 1.50663 -6.08297 Q 1.54 -6.09 1.55621 -6.10202 Q 1.57 -6.11 1.56272 -6.11377 Q 1.57 -6.11 1.55731 -6.12524 Q 1.53 -6.15 1.42762 -6.16938 Q 1.32 -6.19 1.16996 -6.19065 Q 1.02 -6.2 0.87342 -6.19473 Q 0.73 -6.19 0.58605 -6.18879 L -4.50153 -6.00506 L -4.80708 -6.33922" />
    <path d="M 2.70948 -6.16625 L 2.70948 -6.26548" />
    <path d="M 1.69181 -4.54417 L 1.69181 -5.18032" />
    <path d="M -3.57701 4.80655 L -3.57701 -4.99398" />
    <path d="M -3.45963 4.8024 L -3.57701 4.80655 L -3.89217 4.46189 L -3.89217 -5.33865" />
    <path d="M -4.04058 4.29958 L -4.04058 -5.50095" />
    <path d="M -3.89217 4.29422 L -4.04058 4.29958 L -4.35312 3.95778 L -4.35312 -5.84275" />
    <path d="M -4.50153 3.79548 L -4.50153 -6.00506" />
    <path d="M -4.35312 3.79012 L -4.50153 3.79548 L -4.80708 3.46132" />
    <path d="M -2.7136 -3.88306 L -2.7136 -4.04974 L -3.01043 -4.37436 L 4.64256 -4.65074 L 4.93938 -4.32612 L -2.7136 -4.04974" />
    <path d="M -3.01043 -3.87234 L -3.01043 -4.37436" />
    <path d="M 4.93938 -3.82137 L 4.93938 -4.32612" />
    <path d="M -3.14186 6.29194 L -3.14186 -3.50859 L -3.45963 -3.85612 L 4.64014 -4.14864 L 4.95791 -3.80111 L 4.56878 -3.78706 Q 5.12 -3.73 5.23209 -3.59896 Q 5.29 -3.53 5.26372 -3.53275 Q 5.29 -3.53 5.2329 -3.47324 Q 5.17 -3.42 5.01361 -3.37656 Q 4.86 -3.34 4.5965 -3.30626 Q 4.34 -3.28 4.04139 -3.25663 Q 3.75 -3.24 3.37623 -3.22422 L 0.73876 -3.12897 Q 0.73 -3.13 0.71474 -3.12811 Q 0.37 -3.12 0.18782 -3.11006 Q 0.01 -3.1 -0.32033 -3.09861 Q -0.65 -3.09 -0.83523 -3.09728 Q -1.02 -3.1 -1.27654 -3.11586 Q -1.53 -3.13 -1.67941 -3.15753 Q -1.83 -3.19 -1.96303 -3.23161 Q -2.1 -3.28 -2.15579 -3.34202 Q -2.27 -3.47 -2.18835 -3.40951 Q -2.27 -3.47 -1.96484 -3.5511 L -3.14186 -3.50859" />
    <path d="M -2.18835 6.25751 L -3.14186 6.29194 L -3.45963 5.94441 L -3.45963 -3.85612" />
    <path d="M 4.95791 -3.72311 L 4.95791 -3.80111" />
    <path d="M -1.45411 6.67205 Q -1.53 6.67 -1.67941 6.64301 L -1.67941 -3.15753" />
    <path d="M -1.67941 6.64301 Q -1.83 6.62 -1.96303 6.56892 L -1.96303 -3.23161" />
    <path d="M -1.96303 6.56892 Q -2.1 6.52 -2.15579 6.45852 L -2.15579 -3.34202" />
    <path d="M -2.15579 6.45852 Q -2.27 6.33 -2.18835 6.39103 L -2.18835 -3.40951" />
    <path d="M 2.93537 -3.56632 L 2.93537 -3.72807 Q 2.94 -3.73 -0.22094 -3.61408 Q -0.61 -3.6 -0.78282 -3.57456 Q -0.96 -3.55 -0.9224 -3.52072 Q -0.96 -3.55 -0.91453 -3.50421 Q -0.88 -3.46 -0.66758 -3.45395 Q -0.46 -3.44 -0.0009 -3.46028 L 3.05933 -3.57079 Q 3.17 -3.57 3.21743 -3.577 Q 3.27 -3.58 3.37662 -3.58472 Q 3.49 -3.59 3.5439 -3.59717 Q 3.6 -3.6 3.66663 -3.61492 Q 3.73 -3.63 3.75464 -3.64078 Q 3.78 -3.66 3.76608 -3.65842 Q 3.78 -3.66 3.75815 -3.67493 Q 3.68 -3.76 2.93537 -3.72807" />
    <path d="M 4.1357 -2.149 L 4.1357 -2.27425 L 3.81443 -2.6256 L 4.08652 -2.6374 Q 4.18 -2.64 4.27606 -2.6472 Q 4.37 -2.65 4.46583 -2.6649 Q 4.56 -2.68 4.61062 -2.6938 Q 4.66 -2.71 4.64535 -2.7207 Q 4.66 -2.71 4.6399 -2.73234 Q 4.61 -2.77 4.48969 -2.78264 Q 4.37 -2.8 4.18922 -2.79102 Q 3.8 -2.78 3.63497 -2.70788 L 3.04964 -2.46878 Q 2.87 -2.4 2.65433 -2.34207 Q 2.44 -2.29 2.24442 -2.25576 Q 2.05 -2.22 1.81967 -2.20195 Q 1.59 -2.18 1.43621 -2.17085 Q 1.29 -2.16 1.09293 -2.15549 Q 0.06 -2.12 -0.57689 -2.21502 Q -1.21 -2.31 -1.3954 -2.51044 Q -1.78 -2.93 -1.45411 -2.63093 Q -1.78 -2.93 0.38845 -3.01276 L 0.96189 -3.0315 L 1.27443 -2.6897 L 0.43064 -2.65726 Q 0.26 -2.65 0.15222 -2.63882 Q 0.05 -2.63 0.0118 -2.61057 Q -0.02 -2.59 -0.02665 -2.58206 Q -0.03 -2.57 -0.02735 -2.57695 Q -0.03 -2.57 -0.01618 -2.55433 Q 0.05 -2.49 0.60876 -2.50588 Q 0.75 -2.51 0.81687 -2.51439 Q 0.88 -2.52 1.00248 -2.52849 Q 1.12 -2.54 1.20754 -2.5566 Q 1.29 -2.57 1.40628 -2.60521 Q 1.52 -2.64 1.63866 -2.68214 L 2.17812 -2.89 Q 2.35 -2.96 2.53957 -3.00218 Q 2.72 -3.05 2.95188 -3.0723 Q 3.18 -3.1 3.36941 -3.10957 Q 3.56 -3.12 3.86708 -3.13247 Q 4.42 -3.15 4.88072 -3.10399 Q 5.34 -3.06 5.61524 -2.96827 Q 5.89 -2.88 5.98899 -2.7712 Q 6.17 -2.57 6.04554 -2.65462 Q 6.17 -2.57 5.75736 -2.44377 Q 5.34 -2.32 4.27021 -2.27911 L 4.1357 -2.27425" />
    <path d="M 3.81443 -2.13739 L 3.81443 -2.6256" />
    <path d="M 3.04964 -2.10978 L 3.04964 -2.46878" />
    <path d="M -0.67769 7.56906 Q -1.21 7.49 -1.3954 7.2901 L -1.3954 -2.51044" />
    <path d="M -1.3954 7.2901 Q -1.78 6.87 -1.45411 7.16961 L -1.45411 -2.63093" />
    <path d="M 1.27443 -2.57151 L 1.27443 -2.6897" />
    <path d="M 0.43064 -2.50154 L 0.43064 -2.65726" />
    <path d="M 1.83115 -1.54896 L 6.85322 -1.72836 L 7.16401 -1.38847 L -0.04219 -1.12822 L -0.35473 -1.47002 L 0.41393 -1.49778 Q -0.13 -1.52 -0.3525 -1.56528 Q -0.57 -1.61 -0.64287 -1.68745 Q -0.71 -1.76 -0.67769 -1.75916 Q -0.71 -1.76 -0.64914 -1.81642 Q -0.59 -1.87 -0.45038 -1.90842 Q -0.31 -1.94 -0.06035 -1.97034 Q 0.19 -2 0.43645 -2.01047 Q 0.68 -2.02 1.0278 -2.03676 L 6.39402 -2.23055 L 6.7083 -1.88685 L 1.68798 -1.70554 Q 1.14 -1.69 0.96714 -1.66619 Q 0.79 -1.65 0.83048 -1.61598 Q 0.79 -1.65 0.84023 -1.59602 Q 0.86 -1.58 0.90725 -1.56343 Q 0.96 -1.55 1.0411 -1.5446 Q 1.13 -1.54 1.20225 -1.53661 Q 1.28 -1.53 1.39856 -1.5363 Q 1.52 -1.54 1.58571 -1.54059 Q 1.65 -1.54 1.7735 -1.54688 Q 1.81 -1.55 1.83115 -1.54896 Z" />
    <path d="M 7.16401 -1.22278 L 7.16401 -1.38847" />
    <path d="M -0.04219 8.67231 L -0.04219 -1.12822" />
    <path d="M 0.10448 8.66701 L -0.04219 8.67231 L -0.35473 8.33051 L -0.35473 -1.47002" />
    <path d="M -0.35473 8.23479 Q -0.57 8.19 -0.64287 8.11309 L -0.64287 -1.68745" />
    <path d="M -0.64287 8.11309 Q -0.71 8.04 -0.67769 8.04138 L -0.67769 -1.75916" />
    <path d="M 6.7083 -1.72318 L 6.7083 -1.88685" />
    <path d="M 0.10448 8.83271 L 0.10448 -0.96783 L 7.31548 -1.22825 L 7.62104 -0.89409 L 6.78031 -0.86372 Q 7.03 -0.86 7.22643 -0.84532 Q 7.42 -0.83 7.53845 -0.81072 Q 7.66 -0.79 7.74107 -0.76281 Q 7.83 -0.73 7.86333 -0.71051 Q 7.9 -0.69 7.92751 -0.65661 Q 7.97 -0.61 7.95263 -0.60153 Q 7.97 -0.61 7.94363 -0.56843 Q 7.92 -0.52 7.78265 -0.47582 Q 7.65 -0.43 7.39981 -0.39789 Q 7.85 -0.37 8.06688 -0.31694 Q 8.28 -0.27 8.36227 -0.18115 Q 8.42 -0.12 8.39854 -0.10601 Q 8.42 -0.12 8.38492 -0.06411 Q 8.35 -0.01 8.2222 0.02659 Q 8.1 0.06 7.92999 0.09237 Q 7.76 0.12 7.52883 0.13941 Q 7.29 0.16 7.08029 0.16991 Q 6.87 0.18 6.60337 0.19107 L 1.33455 0.37741 L 1.01939 0.03274 L 6.31355 -0.15845 Q 7.01 -0.18 6.95176 -0.24193 Q 7.01 -0.18 6.94642 -0.2533 Q 6.92 -0.28 6.82 -0.29657 Q 6.72 -0.31 6.57479 -0.3178 Q 6.43 -0.32 6.30074 -0.32171 Q 6.17 -0.32 6.04503 -0.31642 L 0.87098 -0.12956 L 0.55844 -0.47136 L 5.64602 -0.65509 Q 5.66 -0.66 5.7349 -0.6583 Q 5.81 -0.66 5.8502 -0.66247 Q 5.89 -0.66 5.97467 -0.66746 Q 6.06 -0.67 6.107 -0.6747 Q 6.16 -0.68 6.22754 -0.68398 Q 6.3 -0.69 6.34023 -0.69644 Q 6.38 -0.7 6.41819 -0.71158 Q 6.46 -0.72 6.46777 -0.73063 Q 6.48 -0.74 6.47428 -0.74238 Q 6.48 -0.74 6.46887 -0.75385 Q 6.44 -0.78 6.33918 -0.79799 Q 6.23 -0.81 6.08152 -0.81926 Q 5.93 -0.82 5.78498 -0.82334 Q 5.64 -0.82 5.49761 -0.8174 L 0.41003 -0.63367 L 0.10448 -0.96783" />
    <path d="M 7.62104 -0.79486 L 7.62104 -0.89409" />
    <path d="M 8.39854 9.69453 Q 8.42 9.68 8.38492 9.73643 L 8.38492 -0.06411" />
    <path d="M 8.38492 9.73643 Q 8.35 9.79 8.2222 9.82712 L 8.2222 0.02659" />
    <path d="M 8.2222 9.82712 Q 8.1 9.86 7.92999 9.89291 L 7.92999 0.09237" />
    <path d="M 7.92999 9.89291 Q 7.76 9.92 7.52883 9.93994 L 7.52883 0.13941" />
    <path d="M 7.52883 9.93994 Q 7.29 9.96 7.08029 9.97044 L 7.08029 0.16991" />
    <path d="M 6.60337 9.99161 L 6.60337 0.19107" />
    <path d="M 7.08029 9.97044 Q 6.87 9.98 6.60337 9.99161 L 1.33455 10.17794 L 1.01939 9.83328 L 1.01939 0.03274" />
    <path d="M 1.33455 10.17794 L 1.33455 0.37741" />
    <path d="M 0.87098 9.67097 L 0.87098 -0.12956" />
    <path d="M 1.01939 9.66561 L 0.87098 9.67097 L 0.55844 9.32917 L 0.55844 -0.47136" />
    <path d="M 0.41003 9.16687 L 0.41003 -0.63367" />
    <path d="M 0.55844 9.16151 L 0.41003 9.16687 L 0.10448 8.83271" />
    <path d="M -0.04821 -8.42938 L -0.04821 -8.68976" />
    <path d="M -1.58165 -8.374 L -1.58165 -8.51603" />
    <path d="M -4.47374 -8.26956 L -4.47374 -8.41158" />
    <path d="M -6.25995 -8.20505 L -6.25995 -8.46" />
    <path d="M -1.77313 -8.8691 L -1.77313 -9.03479" />
    <path d="M -5.29456 -8.74364 L -5.29456 -8.90762" />
    <path d="M -5.69441 -8.7721 L -5.69441 -8.87" />
    <path d="M -1.07046 -8.94635 L -1.07046 -8.97732" />
    <path d="M 1.15126 -7.44908 L 1.15126 -7.72806" />
    <path d="M 0.36007 -7.51062 L 0.36007 -7.62453" />
    <path d="M -0.21143 -7.98441 L -0.21143 -8.00531" />
    <path d="M -0.36209 -7.94882 L -0.36209 -8.04524" />
    <path d="M -0.68221 -7.93209 L -0.68221 -8.0534" />
    <path d="M 0.31681 -6.52426 L 0.31681 -6.66234" />
    <path d="M -0.20684 -6.50535 L -0.20684 -6.64343" />
    <path d="M -3.01352 -6.89131 L -3.01352 -7.05888" />
    <path d="M -3.17009 -6.8864 L -3.17009 -7.05372" />
    <path d="M -3.33627 -6.88246 L -3.33627 -7.04821" />
    <path d="M -3.6291 -6.88079 L -3.6291 -7.03467" />
    <path d="M -3.86931 -6.88951 L -3.86931 -7.01515" />
    <path d="M -4.03835 -6.92035 L -4.03835 -6.98291" />
    <path d="M -2.55606 -6.42051 L -2.55606 -6.55859" />
    <path d="M -3.59593 -6.38296 L -3.59593 -6.53978" />
    <path d="M -4.41631 -6.35333 L -4.41631 -6.57672" />
    <path d="M -5.04406 3.10988 L -5.04406 -6.69065" />
    <path d="M 0.69043 -7.082 L 0.69043 -7.10585" />
    <path d="M 0.57974 -7.04657 L 0.57974 -7.14821" />
    <path d="M 0.34631 -7.0205 L 0.34631 -7.16739" />
    <path d="M 0.04999 -7.00398 L 0.04999 -7.16853" />
    <path d="M -0.31054 -6.9908 L -0.31054 -7.15847" />
    <path d="M -0.61232 -6.9799 L -0.61232 -7.14658" />
    <path d="M 3.03207 -5.71244 L 3.03207 -5.93982" />
    <path d="M 2.87109 -5.73502 L 2.87109 -5.84722" />
    <path d="M 3.47337 -4.60851 L 3.47337 -5.4355" />
    <path d="M 3.31064 -4.60263 L 3.31064 -5.3448" />
    <path d="M 3.01844 -4.59208 L 3.01844 -5.27902" />
    <path d="M 2.61727 -4.57759 L 2.61727 -5.23199" />
    <path d="M 2.16874 -4.5614 L 2.16874 -5.20149" />
    <path d="M 2.03486 -5.60258 L 2.03486 -5.62469" />
    <path d="M 1.90845 -5.56612 L 1.90845 -5.66796" />
    <path d="M 1.66323 -5.54251 L 1.66323 -5.68919" />
    <path d="M 1.38918 -5.52938 L 1.38918 -5.6931" />
    <path d="M 1.13348 -5.52014 L 1.13348 -5.68781" />
    <path d="M 1.55731 -6.10303 L 1.55731 -6.12524" />
    <path d="M 1.42762 -6.06765 L 1.42762 -6.16938" />
    <path d="M 1.16996 -6.04431 L 1.16996 -6.19065" />
    <path d="M 0.87342 -6.0315 L 0.87342 -6.19473" />
    <path d="M 0.58605 -6.02113 L 0.58605 -6.18879" />
    <path d="M 5.2329 -3.0568 L 5.2329 -3.47324" />
    <path d="M 5.01361 -3.08873 L 5.01361 -3.37656" />
    <path d="M 4.5965 -3.12685 L 4.5965 -3.30626" />
    <path d="M 4.04139 -3.1371 L 4.04139 -3.25663" />
    <path d="M 3.37623 -3.10999 L 3.37623 -3.22422" />
    <path d="M 0.73876 -3.02421 L 0.73876 -3.12897" />
    <path d="M 0.71474 -3.02342 L 0.71474 -3.12811" />
    <path d="M 0.18782 -3.00453 L 0.18782 -3.11006" />
    <path d="M -0.32033 -2.97251 L -0.32033 -3.09861" />
    <path d="M -0.83523 -2.91283 L -0.83523 -3.09728" />
    <path d="M -1.27654 -2.80271 L -1.27654 -3.11586" />
    <path d="M -0.22094 -3.45352 L -0.22094 -3.61408" />
    <path d="M -0.78282 -3.46332 L -0.78282 -3.57456" />
    <path d="M 3.75815 -3.64356 L 3.75815 -3.67493" />
    <path d="M 4.6399 -2.70962 L 4.6399 -2.73234" />
    <path d="M 4.48969 -2.66791 L 4.48969 -2.78264" />
    <path d="M 4.18922 -2.64197 L 4.18922 -2.79102" />
    <path d="M 3.63497 -2.13091 L 3.63497 -2.70788" />
    <path d="M 2.65433 -2.0955 L 2.65433 -2.34207" />
    <path d="M 2.24442 -2.0807 L 2.24442 -2.25576" />
    <path d="M 1.81967 -2.06536 L 1.81967 -2.20195" />
    <path d="M 1.43621 -2.05151 L 1.43621 -2.17085" />
    <path d="M 1.09293 -2.03911 L 1.09293 -2.15549" />
    <path d="M -0.57689 -1.86408 L -0.57689 -2.21502" />
    <path d="M 0.15222 -2.50947 L 0.15222 -2.63882" />
    <path d="M 0.0118 -2.53658 L 0.0118 -2.61057" />
    <path d="M -0.02665 -2.57162 L -0.02665 -2.58206" />
    <path d="M 5.75736 -2.20756 L 5.75736 -2.44377" />
    <path d="M 4.27021 -2.15386 L 4.27021 -2.27911" />
    <path d="M -0.3525 -1.4701 L -0.3525 -1.56528" />
    <path d="M 1.68798 -1.54387 L 1.68798 -1.70554" />
    <path d="M 0.96714 -1.55175 L 0.96714 -1.66619" />
    <path d="M 7.94363 -0.34105 L 7.94363 -0.56843" />
    <path d="M 7.78265 -0.36363 L 7.78265 -0.47582" />
    <path d="M 6.94642 -0.23119 L 6.94642 -0.2533" />
    <path d="M 6.82 -0.19473 L 6.82 -0.29657" />
    <path d="M 6.57479 -0.17112 L 6.57479 -0.3178" />
    <path d="M 6.30074 -0.15799 L 6.30074 -0.32171" />
    <path d="M 6.04503 -0.14875 L 6.04503 -0.31642" />
    <path d="M 6.46887 -0.73164 L 6.46887 -0.75385" />
    <path d="M 6.33918 -0.69626 L 6.33918 -0.79799" />
    <path d="M 6.08152 -0.67292 L 6.08152 -0.81926" />
    <path d="M 5.78498 -0.66011 L 5.78498 -0.82334" />
    <path d="M 5.49761 -0.64973 L 5.49761 -0.8174" />
    <path d="M 0.31864 -8.44263 L 0.31864 -8.92362" />
    <path d="M 1.31715 -7.42172 L 1.31715 -7.85502" />
    <path d="M 2.04492 -6.58667 L 2.04492 -7.02854" />
    <path d="M 3.04107 -5.71094 L 3.04107 -5.97293" />
    <path d="M 3.48698 -4.609 L 3.48698 -5.4774" />
    <path d="M 5.26372 -3.05147 L 5.26372 -3.53275" />
    <path d="M 6.04554 -2.21797 L 6.04554 -2.65462" />
    <path d="M 7.95263 -0.33954 L 7.95263 -0.60153" />
    <path d="M 8.39854 9.69453 L 8.39854 -0.10601" />
</svg>